Coordinates
version=1
nRows=8
nColumns=46
inDegrees=yes

Units are S.I. units (second, meters, Newtons, ...)
Angles are in degrees.

endheader
time	pelvis_tilt	pelvis_list	pelvis_rotation	pelvis_tx	pelvis_ty	pelvis_tz	bb_angle	bb_tx	bb_ty	bb_tz	hip_flexion_r	hip_adduction_r	hip_rotation_r	knee_angle_r	knee_angle_r_beta	ankle_angle_r	subtalar_angle_r	mtp_angle_r	crank_angle_r	hip_flexion_l	hip_adduction_l	hip_rotation_l	knee_angle_l	knee_angle_l_beta	ankle_angle_l	subtalar_angle_l	mtp_angle_l	crank_angle_l	lumbar_extension	lumbar_bending	lumbar_rotation	arm_flex_r	arm_add_r	arm_rot_r	elbow_flex_r	pro_sup_r	wrist_flex_r	wrist_dev_r	arm_flex_l	arm_add_l	arm_rot_l	elbow_flex_l	pro_sup_l	wrist_flex_l	wrist_dev_l
      2.50500000	    -23.68499266	     -8.11426927	     -9.22352718	      0.32518665	      1.14877537	     -0.24859130	      0.00000000	      0.50000000	      0.00000000	      0.25000000	     74.87313359	      5.46879242	     -2.00637097	    109.71718706	      1.91492616	     -8.38503803	     -4.54437441	      0.00000000	      0.00000000	     26.32781835	    -17.05540460	     -8.42191447	     21.18357683	      0.36972316	    -15.56573198	     -1.34249935	      0.00000000	      0.00000000	    -57.38854282	     -2.60937682	      9.49015772	     54.13682022	    -18.86599063	     20.73677073	     73.54090633	     50.45769171	      0.00000000	      0.00000000	     44.48234209	    -22.93328052	     15.67751909	     88.82674700	     51.30305376	      0.00000000	      0.00000000
      2.51000000	    -23.90922016	     -7.98111660	    -10.10201264	      0.32462997	      1.15151556	     -0.24926820	      0.00000000	      0.50000000	      0.00000000	      0.25000000	     75.83034935	      6.12892668	     -1.73430302	    109.38654632	      1.90915539	     -7.97553748	     -4.38933520	      0.00000000	      0.00000000	     25.72737674	    -17.15459676	     -8.95924098	     20.82062234	      0.36338841	    -17.07435819	     -1.57652245	      0.00000000	      0.00000000	    -57.61374257	     -2.96576069	      9.62564764	     55.01362788	    -18.86318246	     21.54173710	     73.44408835	     50.51892506	      0.00000000	      0.00000000	     44.45301997	    -23.05450153	     15.19454878	     88.83169920	     51.26045208	      0.00000000	      0.00000000
      2.51500000	    -24.37980897	     -8.01931141	    -10.72280748	      0.32416933	      1.15410713	     -0.25029029	      0.00000000	      0.50000000	      0.00000000	      0.25000000	     76.86046526	      6.61606940	     -1.76151086	    108.90519306	      1.90075419	     -7.54449090	     -4.50532171	      0.00000000	      0.00000000	     25.69829503	    -17.35933182	     -8.99792309	     20.86899010	      0.36423259	    -18.32571285	     -1.60996119	      0.00000000	      0.00000000	    -57.70900309	     -2.98433407	      9.91489770	     55.69731637	    -18.79580149	     21.61135201	     73.59753182	     50.54242955	      0.00000000	      0.00000000	     44.58816377	    -23.12651807	     15.02363841	     88.82898183	     51.24183192	      0.00000000	      0.00000000
      2.52000000	    -24.90380361	     -7.96028539	    -11.62587013	      0.32332976	      1.15681009	     -0.25104075	      0.00000000	      0.50000000	      0.00000000	      0.25000000	     77.92071837	      7.33460296	     -1.72760787	    108.21887943	      1.88877576	     -7.41265058	     -4.81315233	      0.00000000	      0.00000000	     25.75904239	    -17.55523243	     -9.22459432	     21.09484065	      0.36817442	    -19.81616118	     -2.68159578	      0.00000000	      0.00000000	    -57.68393939	     -3.24210519	     10.13702310	     56.62891000	    -19.08744294	     23.10847395	     73.49222317	     50.67691638	      0.00000000	      0.00000000	     44.31139208	    -22.97387992	     13.97985916	     88.96136557	     51.17213347	      0.00000000	      0.00000000
      2.52500000	    -25.28648545	     -7.92981385	    -12.39520554	      0.32269974	      1.15972496	     -0.25153592	      0.00000000	      0.50000000	      0.00000000	      0.25000000	     78.68371943	      8.00709169	     -1.76104413	    107.49511878	      1.87614375	     -6.69256537	     -4.94865801	      0.00000000	      0.00000000	     25.84120546	    -17.81130084	     -9.43477707	     21.64638377	      0.37780067	    -20.87037073	     -2.99377734	      0.00000000	      0.00000000	    -57.86644382	     -3.50930926	     10.43080709	     57.36986288	    -18.96905015	     23.14481567	     73.73672723	     50.71038342	      0.00000000	      0.00000000	     44.52944672	    -23.08304377	     13.75976599	     88.96557630	     51.14931081	      0.00000000	      0.00000000
      2.53000000	    -25.81314225	     -7.95422713	    -13.20075591	      0.32150355	      1.16243386	     -0.25239321	      0.00000000	      0.50000000	      0.00000000	      0.25000000	     79.50301480	      8.74046516	     -1.81281273	    106.55385342	      1.85971557	     -6.20926885	     -5.14922601	      0.00000000	      0.00000000	     26.31190181	    -18.12452810	     -9.40725380	     22.61699160	      0.39474097	    -21.72767768	     -3.88213580	      0.00000000	      0.00000000	    -57.94485514	     -3.66990573	     10.73634729	     58.15463555	    -19.27104100	     24.09550244	     74.12918256	     50.86710445	      0.00000000	      0.00000000	     44.40748793	    -22.86500585	     12.82454450	     89.20591665	     51.10969067	      0.00000000	      0.00000000
      2.53500000	    -26.21993561	     -7.82313556	    -13.93099296	      0.32052795	      1.16524913	     -0.25332926	      0.00000000	      0.50000000	      0.00000000	      0.25000000	     80.06484293	      9.37325170	     -1.69800299	    105.56288446	      1.84241990	     -5.34460516	     -5.36541020	      0.00000000	      0.00000000	     26.75059509	    -18.23745713	     -9.36822010	     23.71774696	      0.41395278	    -22.51076943	     -4.64689598	      0.00000000	      0.00000000	    -58.14711997	     -3.93846322	     10.92716580	     58.85451004	    -19.20411627	     24.11001052	     74.42846030	     50.90741396	      0.00000000	      0.00000000	     44.64158851	    -22.88251135	     12.62376699	     89.21043739	     51.08927741	      0.00000000	      0.00000000
      2.54000000	    -26.97440229	     -7.85204501	    -14.44066638	      0.31932464	      1.16764227	     -0.25450672	      0.00000000	      0.50000000	      0.00000000	      0.25000000	     80.80530243	      9.75681525	     -1.96877666	    104.35047379	      1.82125934	     -4.60194977	     -5.73379564	      0.00000000	      0.00000000	     27.91011299	    -18.43589894	     -8.61022469	     25.27204336	      0.44108037	    -23.35227238	     -5.81754048	      0.00000000	      0.00000000	    -58.01615024	     -3.85427219	     11.31457278	     59.40899582	    -19.48791910	     24.61038873	     74.94586303	     51.03792805	      0.00000000	      0.00000000	     44.61595146	    -22.44731854	     12.03145902	     89.25070082	     51.04631710	      0.00000000	      0.00000000
